<?xml version="1.0" standalone="no"?>
<!DOCTYPE svg PUBLIC "-//W3C//DTD SVG 20010904//EN"
 "http://www.w3.org/TR/2001/REC-SVG-20010904/DTD/svg10.dtd">
<svg version="1.0" xmlns="http://www.w3.org/2000/svg"
 width="470.000000pt" height="470.000000pt" viewBox="0 0 470.000000 470.000000"
 preserveAspectRatio="xMidYMid meet">
<metadata>
Created by potrace 1.14, written by Peter Selinger 2001-2017
</metadata>
<g transform="translate(0.000000,470.000000) scale(0.100000,-0.100000)"
fill="#000000" stroke="none">
<path d="M3825 4254 c-115 -8 -716 -46 -1335 -84 -619 -38 -1208 -77 -1310
-85 -165 -13 -624 -44 -910 -61 -136 -8 -173 -18 -204 -54 -48 -58 -46 -75 47
-352 78 -231 86 -265 103 -400 l17 -147 39 -38 38 -37 0 29 c0 17 -11 198 -25
404 -19 287 -23 383 -14 415 24 94 92 149 199 160 76 9 629 46 677 46 l39 0
55 -192 54 -193 210 -158 c321 -241 291 -211 300 -311 l7 -86 36 5 c21 3 226
23 457 45 572 54 1427 136 1670 159 110 11 279 27 375 36 96 9 202 20 235 23
l60 7 3 83 3 83 -139 174 c-138 172 -140 175 -183 296 -48 132 -85 186 -149
219 -55 28 -118 30 -355 14z"/>
<path d="M1015 3974 c-16 -2 -140 -10 -275 -19 -135 -9 -261 -21 -281 -26 -42
-11 -105 -74 -116 -116 -4 -16 1 -194 11 -398 38 -820 32 -773 99 -832 46 -41
84 -47 221 -39 61 3 291 15 511 26 220 11 415 25 433 31 48 16 99 64 113 106
11 36 6 296 -10 480 l-6 73 -115 84 c-63 46 -117 83 -119 81 -1 -2 2 -98 9
-213 10 -188 10 -212 -5 -250 -20 -49 -71 -97 -112 -106 -15 -3 -155 -15 -309
-25 -210 -15 -292 -17 -320 -9 -45 12 -98 64 -113 110 -10 34 -31 431 -31 593
0 80 3 95 25 128 46 67 75 75 331 88 126 6 230 12 231 13 1 1 -13 51 -31 111
l-32 110 -40 1 c-21 1 -52 0 -69 -2z"/>
<path d="M4310 3294 c-129 -12 -455 -43 -725 -69 -269 -25 -607 -57 -750 -70
-143 -14 -428 -40 -634 -60 -206 -19 -378 -35 -384 -35 -7 0 -8 -58 -4 -167 6
-164 5 -167 -20 -217 -14 -28 -32 -59 -41 -68 -14 -16 -13 -18 6 -18 11 0 290
32 619 70 329 39 771 91 983 116 212 24 556 65 766 89 209 25 385 45 391 45 6
0 38 23 72 52 l61 51 0 154 0 153 -52 -1 c-29 -1 -159 -12 -288 -25z"/>
<path d="M3068 2671 c-466 -59 -849 -109 -852 -112 -6 -6 244 -199 291 -224
22 -11 64 -21 98 -23 77 -4 953 93 1023 113 69 21 104 53 220 204 122 158 118
151 90 150 -13 -1 -404 -49 -870 -108z"/>
<path d="M3130 2295 c-157 -19 -291 -34 -297 -34 -10 -1 -13 -42 -13 -171 l0
-170 325 0 325 0 0 205 0 205 -27 -1 c-16 -1 -156 -16 -313 -34z"/>
<path d="M1546 1721 l-1079 -168 -29 -31 -28 -32 0 -216 c0 -176 3 -221 16
-245 15 -29 65 -59 99 -59 9 0 70 25 136 55 l120 55 737 110 c405 60 767 115
803 121 l67 10 136 191 136 191 0 94 c0 82 -2 93 -17 92 -10 0 -504 -76 -1097
-168z"/>
<path d="M2809 1839 c-58 -22 -59 -112 -3 -138 17 -7 129 -11 348 -11 312 0
324 1 350 21 34 27 37 86 5 115 -20 18 -42 19 -348 21 -196 1 -337 -2 -352 -8z"/>
<path d="M130 1340 l0 -379 69 -253 c38 -139 74 -272 80 -295 l12 -43 244 0
245 0 0 165 c0 91 2 165 5 165 3 0 51 -17 107 -39 724 -274 1315 -311 1746
-110 384 178 609 522 677 1032 l6 47 -103 0 -104 0 -18 -94 c-86 -461 -333
-754 -722 -856 -235 -61 -560 -51 -890 30 -224 54 -510 156 -641 228 -50 27
-63 39 -63 58 0 13 -4 24 -9 24 -5 0 -53 -21 -107 -46 -149 -70 -228 -61 -282
32 -22 38 -22 46 -20 271 3 216 4 233 24 259 40 54 63 63 209 84 198 29 185
25 185 65 l0 35 -325 0 -325 0 0 -380z"/>
</g>
</svg>
