<?xml version="1.0" standalone="no"?>
<!DOCTYPE svg PUBLIC "-//W3C//DTD SVG 20010904//EN"
 "http://www.w3.org/TR/2001/REC-SVG-20010904/DTD/svg10.dtd">
<svg version="1.0" xmlns="http://www.w3.org/2000/svg"
 width="512.000000pt" height="512.000000pt" viewBox="0 0 512.000000 512.000000"
 preserveAspectRatio="xMidYMid meet">
<metadata>
Created by potrace 1.14, written by Peter Selinger 2001-2017
</metadata>
<g transform="translate(0.000000,512.000000) scale(0.100000,-0.100000)"
fill="#000000" stroke="none">
<path d="M0 2560 l0 -2560 25 0 c17 0 49 26 116 95 83 86 95 95 128 95 l36 -1
-97 -94 -97 -95 69 0 69 0 92 95 c83 86 95 95 128 95 l36 -1 -97 -94 -97 -95
69 0 69 0 92 95 c83 86 95 95 128 95 l36 -1 -97 -94 -97 -95 69 0 69 0 92 95
c83 86 95 95 128 95 l36 -1 -97 -94 -97 -95 69 0 69 0 92 95 c83 86 95 95 128
95 l36 -1 -97 -94 -97 -95 69 0 69 0 92 95 c83 86 95 95 128 95 l36 -1 -97
-94 -97 -95 69 0 69 0 92 95 c83 86 95 95 128 95 l36 -1 -97 -94 -97 -95 69 0
69 0 92 95 c83 86 95 95 128 95 l36 -1 -97 -94 -97 -95 69 0 69 0 92 95 c83
86 95 95 128 95 l36 -1 -97 -94 -97 -95 69 0 69 0 92 95 c83 86 95 95 128 95
l36 -1 -97 -94 -97 -95 69 0 69 0 92 95 c83 86 95 95 128 95 l36 -1 -97 -94
-97 -95 69 0 69 0 92 95 c83 86 95 95 128 95 l36 -1 -97 -94 -97 -95 69 0 69
0 92 95 c83 86 95 95 128 95 l36 -1 -97 -94 -97 -95 69 0 69 0 92 95 c83 86
95 95 128 95 l36 -1 -97 -94 -97 -95 69 0 69 0 92 95 c83 86 95 95 128 95 l36
-1 -97 -94 -97 -95 69 0 69 0 92 95 c83 86 95 95 128 95 l36 -1 -97 -94 -97
-95 69 0 69 0 92 95 c83 86 95 95 128 95 l36 -1 -97 -94 -97 -95 69 0 69 0 92
95 c83 86 95 95 128 95 l36 -1 -97 -94 -97 -95 69 0 69 0 92 95 c83 86 95 95
128 95 l36 -1 -97 -94 -97 -95 69 0 69 0 92 95 c83 86 95 95 128 95 l36 -1
-97 -94 -97 -95 69 0 69 0 92 95 c83 86 95 95 128 95 l36 -1 -97 -94 -97 -95
69 0 69 0 92 95 c83 86 95 95 128 95 l36 -1 -97 -94 -97 -95 69 0 69 0 92 95
c83 86 95 95 128 95 l36 -1 -97 -94 -97 -95 69 0 69 0 92 95 c83 86 95 95 128
95 l36 -1 -97 -94 -97 -95 68 0 68 0 136 137 137 136 0 68 0 68 -85 -87 -84
-87 -1 36 c0 33 9 45 85 118 l85 81 0 70 0 69 -85 -87 -84 -87 -1 36 c0 33 9
45 85 118 l85 81 0 70 0 69 -85 -87 -84 -87 -1 36 c0 33 9 45 85 118 l85 81 0
70 0 69 -85 -87 -84 -87 -1 36 c0 33 9 45 85 118 l85 81 0 70 0 69 -85 -87
-84 -87 -1 36 c0 33 9 45 85 118 l85 81 0 70 0 69 -85 -87 -84 -87 -1 36 c0
33 9 45 85 118 l85 81 0 70 0 69 -85 -87 -84 -87 -1 36 c0 33 9 45 85 118 l85
81 0 70 0 69 -85 -87 -84 -87 -1 36 c0 33 9 45 85 118 l85 81 0 70 0 69 -85
-87 -84 -87 -1 36 c0 33 9 45 85 118 l85 81 0 70 0 69 -85 -87 -84 -87 -1 36
c0 33 9 45 85 118 l85 81 0 70 0 69 -85 -87 -84 -87 -1 36 c0 33 9 45 85 118
l85 81 0 70 0 69 -85 -87 -84 -87 -1 36 c0 33 9 45 85 118 l85 81 0 70 0 69
-85 -87 -84 -87 -1 36 c0 33 9 45 85 118 l85 81 0 70 0 69 -85 -87 -84 -87 -1
36 c0 33 9 45 85 118 l85 81 0 70 0 69 -85 -87 -84 -87 -1 36 c0 33 9 45 85
118 l85 81 0 70 0 69 -85 -87 -84 -87 -1 36 c0 33 9 45 85 118 l85 81 0 70 0
69 -85 -87 -84 -87 -1 36 c0 33 9 45 85 118 l85 81 0 70 0 69 -85 -87 -84 -87
-1 36 c0 33 9 45 85 118 l85 81 0 70 0 69 -85 -87 -84 -87 -1 36 c0 33 9 45
85 118 l85 81 0 70 0 69 -85 -87 -84 -87 -1 36 c0 33 9 45 85 118 l85 81 0 70
0 69 -85 -87 -84 -87 -1 36 c0 33 9 45 85 118 l85 81 0 70 0 69 -85 -87 -84
-87 -1 36 c0 33 9 45 85 118 l85 81 0 70 0 69 -85 -87 -84 -87 -1 36 c0 33 9
45 85 118 l85 81 0 70 0 69 -85 -87 -84 -87 -1 36 c0 33 9 45 85 118 62 59 85
88 85 106 l0 25 -2560 0 -2560 0 0 -2560z m210 2544 c0 -10 -163 -174 -182
-185 -15 -8 -18 -5 -18 17 0 37 137 174 174 174 14 0 26 -3 26 -6z m200 0 c0
-4 -39 -46 -87 -95 -77 -79 -90 -89 -122 -89 l-36 1 97 94 c71 70 104 95 122
95 14 0 26 -3 26 -6z m200 0 c0 -4 -39 -46 -87 -95 -77 -79 -90 -89 -122 -89
l-36 1 97 94 c71 70 104 95 122 95 14 0 26 -3 26 -6z m200 0 c0 -4 -39 -46
-87 -95 -77 -79 -90 -89 -122 -89 l-36 1 97 94 c71 70 104 95 122 95 14 0 26
-3 26 -6z m200 0 c0 -4 -39 -46 -87 -95 -77 -79 -90 -89 -122 -89 l-36 1 97
94 c71 70 104 95 122 95 14 0 26 -3 26 -6z m200 0 c0 -4 -39 -46 -87 -95 -77
-79 -90 -89 -122 -89 l-36 1 97 94 c71 70 104 95 122 95 14 0 26 -3 26 -6z
m200 0 c0 -4 -39 -46 -87 -95 -77 -79 -90 -89 -122 -89 l-36 1 97 94 c71 70
104 95 122 95 14 0 26 -3 26 -6z m200 0 c0 -4 -39 -46 -87 -95 -77 -79 -90
-89 -122 -89 l-36 1 97 94 c71 70 104 95 122 95 14 0 26 -3 26 -6z m200 0 c0
-4 -39 -46 -87 -95 -77 -79 -90 -89 -122 -89 l-36 1 97 94 c71 70 104 95 122
95 14 0 26 -3 26 -6z m200 0 c0 -4 -39 -46 -87 -95 -77 -79 -90 -89 -122 -89
l-36 1 97 94 c71 70 104 95 122 95 14 0 26 -3 26 -6z m200 0 c0 -4 -39 -46
-87 -95 -77 -79 -90 -89 -122 -89 l-36 1 97 94 c71 70 104 95 122 95 14 0 26
-3 26 -6z m200 0 c0 -4 -39 -46 -87 -95 -77 -79 -90 -89 -122 -89 l-36 1 97
94 c71 70 104 95 122 95 14 0 26 -3 26 -6z m200 0 c0 -4 -39 -46 -87 -95 -77
-79 -90 -89 -122 -89 l-36 1 97 94 c71 70 104 95 122 95 14 0 26 -3 26 -6z
m200 0 c0 -4 -39 -46 -87 -95 -77 -79 -90 -89 -122 -89 l-36 1 97 94 c71 70
104 95 122 95 14 0 26 -3 26 -6z m200 0 c0 -4 -39 -46 -87 -95 -77 -79 -90
-89 -122 -89 l-36 1 97 94 c71 70 104 95 122 95 14 0 26 -3 26 -6z m200 0 c0
-4 -39 -46 -87 -95 -77 -79 -90 -89 -122 -89 l-36 1 97 94 c71 70 104 95 122
95 14 0 26 -3 26 -6z m200 0 c0 -4 -39 -46 -87 -95 -77 -79 -90 -89 -122 -89
l-36 1 97 94 c71 70 104 95 122 95 14 0 26 -3 26 -6z m200 0 c0 -4 -39 -46
-87 -95 -77 -79 -90 -89 -122 -89 l-36 1 97 94 c71 70 104 95 122 95 14 0 26
-3 26 -6z m200 0 c0 -4 -39 -46 -87 -95 -77 -79 -90 -89 -122 -89 l-36 1 97
94 c71 70 104 95 122 95 14 0 26 -3 26 -6z m200 0 c0 -4 -39 -46 -87 -95 -77
-79 -90 -89 -122 -89 l-36 1 97 94 c71 70 104 95 122 95 14 0 26 -3 26 -6z
m200 0 c0 -4 -39 -46 -87 -95 -77 -79 -90 -89 -122 -89 l-36 1 97 94 c71 70
104 95 122 95 14 0 26 -3 26 -6z m200 0 c0 -4 -39 -46 -87 -95 -77 -79 -90
-89 -122 -89 l-36 1 97 94 c71 70 104 95 122 95 14 0 26 -3 26 -6z m200 0 c0
-4 -39 -46 -87 -95 -77 -79 -90 -89 -122 -89 l-36 1 97 94 c71 70 104 95 122
95 14 0 26 -3 26 -6z m200 0 c0 -4 -39 -46 -87 -95 -77 -79 -90 -89 -122 -89
l-36 1 97 94 c71 70 104 95 122 95 14 0 26 -3 26 -6z m200 0 c0 -4 -39 -46
-87 -95 -77 -79 -90 -89 -122 -89 l-36 1 97 94 c71 70 104 95 122 95 14 0 26
-3 26 -6z m-4917 -326 c-65 -67 -83 -76 -83 -44 0 17 20 47 63 92 l62 67 3
-33 c3 -28 -4 -40 -45 -82z m4597 -2153 l0 -2125 -2180 0 -2180 0 0 2125 0
2125 2180 0 2180 0 0 -2125z m-4597 1953 c-65 -67 -83 -76 -83 -44 0 17 20 47
63 92 l62 67 3 -33 c3 -28 -4 -40 -45 -82z m0 -200 c-65 -67 -83 -76 -83 -44
0 17 20 47 63 92 l62 67 3 -33 c3 -28 -4 -40 -45 -82z m0 -200 c-65 -67 -83
-76 -83 -44 0 17 20 47 63 92 l62 67 3 -33 c3 -28 -4 -40 -45 -82z m0 -200
c-65 -67 -83 -76 -83 -44 0 17 20 47 63 92 l62 67 3 -33 c3 -28 -4 -40 -45
-82z m0 -200 c-65 -67 -83 -76 -83 -44 0 17 20 47 63 92 l62 67 3 -33 c3 -28
-4 -40 -45 -82z m0 -200 c-65 -67 -83 -76 -83 -44 0 17 20 47 63 92 l62 67 3
-33 c3 -28 -4 -40 -45 -82z m0 -200 c-65 -67 -83 -76 -83 -44 0 17 20 47 63
92 l62 67 3 -33 c3 -28 -4 -40 -45 -82z m0 -200 c-65 -67 -83 -76 -83 -44 0
17 20 47 63 92 l62 67 3 -33 c3 -28 -4 -40 -45 -82z m0 -200 c-65 -67 -83 -76
-83 -44 0 17 20 47 63 92 l62 67 3 -33 c3 -28 -4 -40 -45 -82z m0 -200 c-65
-67 -83 -76 -83 -44 0 17 20 47 63 92 l62 67 3 -33 c3 -28 -4 -40 -45 -82z m0
-200 c-65 -67 -83 -76 -83 -44 0 17 20 47 63 92 l62 67 3 -33 c3 -28 -4 -40
-45 -82z m0 -200 c-65 -67 -83 -76 -83 -44 0 17 20 47 63 92 l62 67 3 -33 c3
-28 -4 -40 -45 -82z m0 -200 c-65 -67 -83 -76 -83 -44 0 17 20 47 63 92 l62
67 3 -33 c3 -28 -4 -40 -45 -82z m0 -200 c-65 -67 -83 -76 -83 -44 0 17 20 47
63 92 l62 67 3 -33 c3 -28 -4 -40 -45 -82z m0 -200 c-65 -67 -83 -76 -83 -44
0 17 20 47 63 92 l62 67 3 -33 c3 -28 -4 -40 -45 -82z m0 -200 c-65 -67 -83
-76 -83 -44 0 17 20 47 63 92 l62 67 3 -33 c3 -28 -4 -40 -45 -82z m0 -200
c-65 -67 -83 -76 -83 -44 0 17 20 47 63 92 l62 67 3 -33 c3 -28 -4 -40 -45
-82z m0 -200 c-65 -67 -83 -76 -83 -44 0 17 20 47 63 92 l62 67 3 -33 c3 -28
-4 -40 -45 -82z m0 -200 c-65 -67 -83 -76 -83 -44 0 17 20 47 63 92 l62 67 3
-33 c3 -28 -4 -40 -45 -82z m0 -200 c-65 -67 -83 -76 -83 -44 0 17 20 47 63
92 l62 67 3 -33 c3 -28 -4 -40 -45 -82z m0 -200 c-65 -67 -83 -76 -83 -44 0
17 20 47 63 92 l62 67 3 -33 c3 -28 -4 -40 -45 -82z m0 -200 c-65 -67 -83 -76
-83 -44 0 17 20 47 63 92 l62 67 3 -33 c3 -28 -4 -40 -45 -82z m0 -200 c-65
-67 -83 -76 -83 -44 0 17 20 47 63 92 l62 67 3 -33 c3 -28 -4 -40 -45 -82z"/>
<path d="M3820 4324 c-91 -7 -273 -18 -405 -24 -132 -5 -330 -17 -440 -24
-110 -8 -380 -26 -600 -40 -220 -14 -508 -32 -640 -40 -132 -9 -415 -29 -630
-46 -214 -16 -430 -30 -478 -30 -51 0 -101 -6 -121 -14 -38 -16 -76 -71 -76
-110 0 -31 27 -117 82 -264 43 -115 57 -177 84 -359 16 -115 19 -124 51 -155
18 -17 34 -30 36 -27 2 2 -4 108 -14 234 -22 281 -26 540 -9 575 6 14 31 40
55 58 55 42 103 49 395 62 118 6 247 13 285 16 l70 6 34 -108 c18 -60 40 -138
48 -174 13 -63 39 -99 70 -100 7 0 16 -6 20 -13 4 -8 42 -39 83 -69 41 -31 86
-65 99 -77 13 -11 28 -21 32 -21 4 0 29 -18 55 -41 26 -23 58 -46 70 -51 28
-13 44 -49 44 -101 0 -88 0 -87 109 -81 53 3 286 26 518 50 232 24 442 44 465
44 24 0 243 20 488 44 245 25 524 52 620 61 96 8 219 20 273 27 l97 11 0 78
c0 85 0 86 -117 218 -24 27 -43 51 -43 56 0 4 -19 29 -42 55 -29 32 -53 74
-72 126 -16 44 -42 107 -58 141 -27 56 -35 64 -91 92 -72 36 -84 36 -347 15z"/>
<path d="M1090 4060 c-315 -25 -327 -28 -355 -82 -32 -61 -33 -85 -19 -324 8
-132 18 -354 23 -494 8 -287 11 -298 83 -350 36 -26 50 -30 107 -30 142 0 908
50 945 62 29 9 47 24 68 57 27 43 28 50 28 164 0 65 -5 173 -11 240 -10 121
-11 122 -45 155 -19 17 -39 32 -44 32 -4 0 -32 20 -61 45 -29 25 -59 45 -66
45 -15 0 -16 -61 -4 -240 9 -125 -1 -206 -28 -228 -54 -43 -85 -49 -306 -66
-347 -25 -357 -24 -410 56 l-29 43 -15 292 c-16 321 -17 309 44 374 l34 36
143 7 c79 3 178 9 221 12 l77 7 -6 36 c-3 20 -15 66 -27 104 l-21 67 -55 -1
c-31 -1 -153 -9 -271 -19z"/>
<path d="M4070 3445 c-217 -24 -422 -44 -455 -44 -33 -1 -253 -21 -490 -46
-236 -25 -455 -45 -485 -45 -48 0 -452 -40 -567 -55 l-43 -6 0 -149 c0 -159
-10 -209 -54 -259 -14 -16 -16 -22 -6 -19 8 3 71 11 140 17 69 7 215 23 325
36 426 52 534 65 635 74 58 6 209 24 335 41 127 17 280 35 340 40 61 4 254 27
430 50 l319 42 48 46 48 46 0 138 0 138 -62 -1 c-35 -1 -241 -21 -458 -44z"/>
<path d="M3685 2969 c-365 -49 -686 -90 -820 -105 -307 -36 -475 -59 -475 -66
0 -4 17 -19 38 -33 20 -14 73 -54 117 -90 121 -98 121 -98 255 -96 128 1 898
93 909 108 3 5 21 19 38 32 18 12 46 41 62 64 16 23 41 55 55 70 14 15 26 32
26 37 0 6 18 29 40 52 22 24 40 46 40 50 0 12 -60 8 -285 -23z"/>
<path d="M3385 2583 c-63 -3 -384 -40 -422 -49 -23 -4 -23 -7 -23 -159 l0
-155 295 0 295 0 0 185 0 185 -42 -2 c-24 -1 -70 -3 -103 -5z"/>
<path d="M2540 2164 c-214 -35 -443 -71 -665 -105 -154 -23 -641 -99 -875
-135 -135 -21 -171 -30 -197 -50 l-33 -25 0 -210 0 -210 32 -30 c36 -33 89
-39 122 -14 11 8 27 15 35 15 8 0 45 16 81 34 51 27 89 38 156 46 49 6 215 31
369 56 154 24 294 44 310 44 17 0 151 20 298 45 148 25 291 45 317 45 45 0 51
3 81 43 19 23 36 44 39 47 4 3 17 24 30 48 13 23 27 42 31 42 5 0 21 21 36 48
15 26 32 52 39 57 42 37 54 73 54 159 l0 86 -27 -1 c-16 -1 -120 -16 -233 -35z"/>
<path d="M2910 2140 c-11 -11 -20 -33 -20 -50 0 -17 9 -39 20 -50 19 -19 33
-20 320 -20 200 0 307 4 324 11 26 12 41 49 31 80 -15 45 -45 49 -360 49 -282
0 -296 -1 -315 -20z"/>
<path d="M510 1710 c0 -271 3 -337 15 -375 9 -25 24 -82 34 -128 10 -45 35
-134 54 -197 20 -63 37 -128 39 -145 l3 -30 223 -3 222 -2 0 150 c0 82 2 150
4 150 2 0 51 -20 109 -45 58 -25 112 -45 120 -45 8 0 76 -20 150 -45 75 -25
145 -45 154 -45 10 0 68 -11 128 -25 241 -55 488 -70 661 -40 160 28 329 83
406 131 21 13 44 24 52 24 8 0 16 3 18 8 2 4 21 20 43 37 68 51 88 68 138 120
50 53 170 226 180 260 3 11 24 64 46 118 23 55 41 109 41 120 0 12 6 54 14 92
8 39 18 91 21 118 l7 47 -95 0 c-108 0 -98 9 -117 -105 -15 -95 -37 -168 -70
-240 -16 -33 -31 -70 -35 -82 -3 -13 -12 -29 -19 -35 -7 -7 -31 -40 -53 -74
-103 -152 -259 -258 -456 -309 -206 -53 -402 -57 -644 -11 -70 13 -146 27
-168 31 -22 4 -92 24 -155 45 -63 21 -128 41 -145 45 -16 3 -50 16 -75 27 -25
11 -64 29 -87 39 -23 11 -48 19 -56 19 -8 0 -20 6 -26 13 -6 8 -29 22 -51 32
-25 11 -40 25 -40 36 0 26 -47 15 -126 -28 -90 -49 -153 -43 -214 22 l-25 27
0 222 c0 198 2 225 18 250 24 36 90 66 147 66 25 0 80 5 123 12 l77 11 0 34 0
33 -295 0 -295 0 0 -330z"/>
<path d="M5038 104 c-43 -45 -78 -86 -78 -93 0 -6 17 -11 43 -11 37 0 48 6 81
38 35 37 37 42 34 93 l-3 54 -77 -81z"/>
</g>
</svg>
